<svg width="48" height="48" viewBox="0 0 48 48" fill="none" xmlns="http://www.w3.org/2000/svg">
<ellipse cx="37.0286" cy="12" rx="10.9714" ry="12" fill="current"/>
<rect x="32.9143" y="18.9817" width="8.68571" height="29.0182" rx="4.34286" fill="current"/>
<path d="M4.16426 20.8364L6.90711 23.891H15.4785C15.4785 23.891 17.1434 22.0237 18.2214 20.8364C19.1536 19.8098 19.788 19.3196 20.6214 18.2183C21.325 17.2883 21.909 16.8168 22.2214 15.7092C22.5115 14.6807 22.2214 12.9819 22.2214 12.9819L19.7071 15.0546L17.0286 12.8728C17.0286 12.8728 16.2662 14.2378 15.4785 14.291C14.6233 14.3488 13.7143 12.8728 13.7143 12.8728L11.3643 15.0546L8.57143 12.8728C8.57143 12.8728 7.69619 14.2633 6.90711 14.291C6.08471 14.3199 5.25714 12.8728 5.25714 12.8728C5.25714 12.8728 3.9292 15.1103 2.56426 15.0546C1.26806 15.0017 0.0499703 12.9819 0.0499703 12.9819C0.0499703 12.9819 -0.118909 14.6781 0.164256 15.7092C0.457858 16.7783 0.877223 17.3092 1.53568 18.2183C2.37942 19.3831 4.16426 20.8364 4.16426 20.8364Z" fill="#610BEF"/>
<rect x="16.9642" width="5.25714" height="15.0545" rx="2.62857" fill="current"/>
<rect x="0.0499878" width="5.25714" height="15.0545" rx="2.62857" fill="current"/>
<rect x="8.50708" width="5.25714" height="15.0545" rx="2.62857" fill="current"/>
<rect x="6.9071" y="15.0546" width="8.45714" height="32.9455" rx="4.22857" fill="current"/>
</svg>
