<svg width="20" height="20" viewBox="0 0 20 20" fill="none" xmlns="http://www.w3.org/2000/svg">
<circle cx="9.9999" cy="10" r="3.11111" stroke="current" stroke-width="2"/>
<path d="M8.28557 2.74977C9.0616 1.45474 10.9382 1.45474 11.7142 2.74977V2.74977C12.1668 3.50502 13.0603 3.87513 13.9144 3.6611V3.6611C15.3788 3.29411 16.7058 4.62107 16.3388 6.08553V6.08553C16.1248 6.93959 16.4949 7.83311 17.2501 8.28568V8.28568C18.5452 9.06171 18.5452 10.9383 17.2501 11.7143V11.7143C16.4949 12.1669 16.1248 13.0604 16.3388 13.9145V13.9145C16.7058 15.379 15.3788 16.7059 13.9144 16.3389V16.3389C13.0603 16.1249 12.1668 16.495 11.7142 17.2503V17.2503C10.9382 18.5453 9.0616 18.5453 8.28557 17.2503V17.2503C7.833 16.495 6.93949 16.1249 6.08543 16.3389V16.3389C4.62096 16.7059 3.294 15.379 3.66099 13.9145V13.9145C3.87502 13.0604 3.50492 12.1669 2.74966 11.7143V11.7143C1.45463 10.9383 1.45463 9.06171 2.74966 8.28568V8.28568C3.50492 7.83311 3.87502 6.93959 3.66099 6.08553V6.08553C3.294 4.62107 4.62096 3.29411 6.08543 3.6611V3.6611C6.93949 3.87513 7.833 3.50502 8.28557 2.74977V2.74977Z" stroke="current" stroke-width="2"/>
</svg>
